<?xml version="1.0" encoding="utf-8"?>
<!-- Generator: Adobe Illustrator 21.1.0, SVG Export Plug-In . SVG Version: 6.00 Build 0)  -->
<svg version="1.2" baseProfile="tiny" id="Layer_1" xmlns="http://www.w3.org/2000/svg" xmlns:xlink="http://www.w3.org/1999/xlink"
	 x="0px" y="0px" viewBox="0 0 143 165.2" xml:space="preserve">
<g>
	<polygon fill="#F47F57" points="143,123.9 143,41.3 71.5,0 0,41.3 0,123.9 71.5,165.2 	"/>
	<image width="144" height="166" xlink:href="7BCB6EAAD0F165F4.png" >
	</image>
	<g id="Shaders_10_">
		<image width="73" height="61" xlink:href="7BCB6EAAD0F165F5.png"  transform="matrix(1 0 0 1 71 0)">
		</image>
		<image width="72" height="61" xlink:href="7BCB6EAAD0F165F3.png" >
		</image>
		<image width="36" height="83" xlink:href="7BCB6EAAD0F165FC.png"  transform="matrix(1 0 0 1 108 41)">
		</image>
		<image width="72" height="62" xlink:href="7BCB6EAAD0F165FF.png"  transform="matrix(1 0 0 1 0 104)">
		</image>
		<image width="73" height="62" xlink:href="7BCB6EAAD0F165FD.png"  transform="matrix(1 0 0 1 71 104)">
		</image>
		<image width="35" height="83" xlink:href="7BCB6EAAD0F165F2.png"  transform="matrix(1 0 0 1 0 41)">
		</image>
	</g>
	<image width="133" height="118" id="Shine_14_" xlink:href="7BCB6EAAD0F165F6.png"  transform="matrix(1 0 0 1 10 30)">
	</image>
	<image width="132" height="138" id="Shine_13_" xlink:href="7BCB6EAAD0F165F7.png"  transform="matrix(1 0 0 1 46 -47)">
	</image>
	<image width="94" height="122" xlink:href="E466FEB032E3BC93.png"  transform="matrix(1 0 0 1 79 41)">
	</image>
</g>
</svg>
